<svg width="104" height="52" viewBox="0 0 104 52" fill="none" xmlns="http://www.w3.org/2000/svg">
<path d="M39.8752 42H45.1672V21.84H39.8752V42ZM42.5392 18.6C44.3392 18.6 45.5992 17.448 45.5992 15.684C45.5992 13.956 44.3392 12.804 42.5392 12.804C40.7032 12.804 39.4432 13.956 39.4432 15.684C39.4432 17.448 40.7032 18.6 42.5392 18.6ZM50.8088 42H56.1008V28.14C57.5768 26.664 58.6208 25.872 60.2768 25.872C62.2568 25.872 63.1208 26.952 63.1208 30.084V42H68.4128V29.436C68.4128 24.36 66.5408 21.336 62.1848 21.336C59.4488 21.336 57.3968 22.776 55.6328 24.504H55.5248L55.1288 21.84H50.8088V42ZM89.1195 42.351C91.6845 42.351 93.6555 41.46 94.8705 40.164V32.523H88.9845V33.414H93.8175V39.84C92.8455 40.812 91.0635 41.406 89.2005 41.406C84.6375 41.406 81.9105 37.761 81.9105 32.145C81.9105 26.529 84.7725 22.992 89.4165 22.992C91.6035 22.992 93.0345 23.937 94.0335 25.044L94.6545 24.369C93.6555 23.289 92.0355 22.047 89.4165 22.047C84.2595 22.047 80.8575 25.962 80.8575 32.145C80.8575 38.328 84.1515 42.351 89.1195 42.351ZM100.004 42H101.003V22.398H100.004V42Z" fill="#FFFBFB"/>
<path d="M4.10844 42H5.36844L5.36844 23.928C5.36844 21.876 5.29644 19.212 5.18844 17.088H5.33244L7.38444 22.848L13.2884 39.084H14.6924L20.5604 22.848L22.5764 17.088H22.7204C22.6484 19.212 22.5764 21.876 22.5764 23.928L22.5764 42H23.9084L23.9084 15.864H21.7844L16.1684 31.632C15.4844 33.576 14.8364 35.556 14.1164 37.536H13.9724C13.2524 35.556 12.5324 33.576 11.8124 31.632L6.23244 15.864H4.10844L4.10844 42Z" fill="white"/>
</svg>
