<svg width="18" height="18" viewBox="0 0 18 18" fill="none" xmlns="http://www.w3.org/2000/svg">
<path d="M3.39645 11.6464C3.20118 11.8417 3.20118 12.1583 3.39645 12.3536C3.59171 12.5488 3.90829 12.5488 4.10355 12.3536L3.39645 11.6464ZM9 6.75L9.35355 6.39645C9.15829 6.20118 8.84171 6.20118 8.64645 6.39645L9 6.75ZM13.8964 12.3536C14.0917 12.5488 14.4083 12.5488 14.6036 12.3536C14.7988 12.1583 14.7988 11.8417 14.6036 11.6464L13.8964 12.3536ZM4.10355 12.3536L9.35355 7.10355L8.64645 6.39645L3.39645 11.6464L4.10355 12.3536ZM8.64645 7.10355L13.8964 12.3536L14.6036 11.6464L9.35355 6.39645L8.64645 7.10355Z" fill="white"/>
</svg>
